<?xml version="1.0" encoding="UTF-8"?>
<svg version="1.1" stroke="currentColor" viewBox="0 0 37 25" stroke-linecap="round" stroke-width="0.5" xml:space="preserve" xmlns="http://www.w3.org/2000/svg">
  <g>
    <path d="m0.41661 20.098 4.6538 4.4013"/>
    <path d="m0.41661 9.4239 4.6538 4.4013"/>
    <path d="m0.41661 9.4239 3.3805-1.3255"/>
    <path d="m9.8248 0.49956 12.689 11.998"/>
    <path d="m23.895 0.49956 12.689 11.998"/>
    <path d="m22.514 14.395 10.693 10.105"/>
    <path d="m33.206 13.826 3.3772-1.3286"/>
    <path d="m19.136 13.826 3.3772-1.3286"/>
    <path d="m19.136 13.826-12.696-11.999"/>
    <path d="m3.7971 8.0984 4.6569 4.3978"/>
    <path d="m6.4402 1.8274 3.3846-1.3278"/>
    <path d="m8.454 14.405 10.682 10.096"/>
    <path d="m20.51 1.8274 3.3846-1.3278"/>
    <path d="m20.51 1.8274 12.696 11.999"/>
    <path d="m5.0704 13.825 3.3835-1.329"/>
    <path d="m19.136 24.5 3.3772-1.3286"/>
    <path d="m33.206 24.5 3.3772-1.3286"/>
    <path d="m5.0704 24.5 3.3835-1.329"/>
    <path d="m0.41661 20.098v-10.674"/>
    <path d="m36.583 23.172v-10.674"/>
    <path d="m22.514 23.172v-10.674"/>
    <path d="m6.4402 10.594v-8.7671"/>
    <path d="m8.454 23.171v-10.674"/>
    <path d="m20.51 10.603v-8.7756"/>
    <path d="m19.136 24.5v-10.674"/>
    <path d="m5.0704 24.5v-10.674"/>
    <path d="m33.206 24.5v-10.674"/>
  </g>
  <g stroke-dasharray="0.6, 1">
    <path d="m0.41661 20.098 3.3805-1.3255"/>
    <path d="m3.7971 18.773 4.6569 4.3978"/>
    <path d="m6.4402 12.502 3.3846-1.3278"/>
    <path d="m9.8248 11.174 12.689 11.998"/>
    <path d="m23.895 11.174 12.689 11.998"/>
    <path d="m6.4402 12.502 2.0138 1.9032"/>
    <path d="m20.51 12.502 3.3846-1.3278"/>
    <path d="m20.51 12.502 2.0036 1.8936"/>
    <path d="m3.7971 18.773v-10.674"/>
    <path d="m9.8248 11.174v-10.674"/>
    <path d="m23.895 11.174v-10.674"/>
    <path d="m6.4402 12.502v-1.9073"/>
    <path d="m20.51 12.502v-1.8987"/>
  </g>
</svg>
