<?xml version="1.0" encoding="UTF-8"?>
<svg fill="none" stroke="currentColor" stroke-linecap="round" stroke-linejoin="round" stroke-width=".5" version="1.1" viewBox="0 0 25 25" xml:space="preserve" xmlns="http://www.w3.org/2000/svg">
  <g>
    <path d="m12.5 17.456v-5.0312"/>
    <path d="m16.857 14.941v-5.0312"/>
    <path d="m12.5 12.425 4.3572-2.5156"/>
    <path d="M 8.1428,9.9094 12.5,12.425"/>
    <path d="m12.5 7.3938-4.3572 2.5156"/>
    <path d="m16.857 9.9094-4.3572-2.5156"/>
    <path d="m8.1428 14.941 4.3572 2.5156"/>
    <path d="m16.857 14.941-4.3572 2.5156"/>
    <path d="m8.1428 9.9094v5.0312"/>
    <path d="m12.5 5.9562 4.3572-2.5156"/>
    <path d="M 8.1428,3.4406 12.5,5.9562"/>
    <path d="m12.5 0.925-4.3572 2.5156"/>
    <path d="m16.857 3.4406-4.3572-2.5156"/>
    <path d="m8.1428 4.8781v-1.4375"/>
    <path d="m16.857 4.8781v-1.4375"/>
    <path d="m6.8979 15.659-4.3572-2.5156"/>
    <path d="m6.8979 20.691v-5.0312"/>
    <path d="m2.5407 18.175 4.3572 2.5156"/>
    <path d="m2.5407 13.144v5.0312"/>
    <path d="m8.1428 19.972-1.2449 0.71875"/>
    <path d="m3.7856 12.425-1.2449 0.71875"/>
    <path d="m18.102 15.659 1e-6 5.0312"/>
    <path d="m22.459 13.144-4.3572 2.5156"/>
    <path d="m22.459 18.175v-5.0312"/>
    <path d="m18.102 20.691 4.3572-2.5156"/>
    <path d="m21.214 12.425 1.2449 0.71875"/>
    <path d="m16.857 19.972 1.2449 0.71875"/>
    <path d="m12.5 23.925v-5.0312"/>
    <path d="m16.857 21.409v-5.0312"/>
    <path d="m12.5 18.894 4.3572-2.5156"/>
    <path d="m8.1428 16.378 4.3572 2.5156"/>
    <path d="m8.1428 21.409 4.3572 2.5156"/>
    <path d="m16.857 21.409-4.3572 2.5156"/>
    <path d="m8.1428 16.378v5.0312"/>
    <path d="m8.1428 16.378 1.2449-0.71875"/>
    <path d="m16.857 16.378-1.2449-0.71875"/>
    <path d="m2.5407 6.675 4.3572 2.5156"/>
    <path d="m2.5407 11.706 4.3572 2.5156"/>
    <path d="m6.8979 9.1906 1e-7 5.0312"/>
    <path d="m11.255 6.675-4.3572 2.5156"/>
    <path d="m6.8979 4.1594-4.3572 2.5156"/>
    <path d="m2.5407 11.706-1e-7 -5.0312"/>
    <path d="m11.255 6.675-4.3572-2.5156"/>
    <path d="m11.255 6.675v1.4375"/>
    <path d="m6.8979 14.222 1.2449-0.71875"/>
    <path d="m22.459 6.675-4.3572 2.5156"/>
    <path d="m18.102 4.1594-4.3572 2.5156"/>
    <path d="m18.102 9.1906-4.3572-2.5156"/>
    <path d="m18.102 14.222v-5.0313"/>
    <path d="m22.459 11.706v-5.0313"/>
    <path d="m18.102 4.1594 4.3572 2.5156"/>
    <path d="m18.102 14.222 4.3572-2.5156"/>
    <path d="m18.102 14.222-1.2449-0.71875"/>
    <path d="m13.745 6.675-1e-6 1.4375"/>
    <path d="m12.5 7.3939v-1.4377" />
    <path d="m18.102 15.659-1.245-0.718" />
    <path d="m6.8979 15.659 1.2449-0.7184" />
  </g>
  <g stroke-dasharray="0.6, 1">
    <path d="m12.5 12.425-4.3572 2.5156"/>
    <path d="m18.102 9.1903-2.7e-5 -5.0312"/>
    <path d="m18.102 9.1903 4.3572 2.5156"/>
    <path d="m18.102 9.1903-1.245 0.7195"/>
    <path d="m6.8984 9.1903 2.65e-5 -5.0312"/>
    <path d="m6.8984 9.1903-4.3572 2.5156"/>
    <path d="m6.8984 9.1903 1.2444 0.7191"/>
    <path d="m12.5 12.425 4.3572 2.5156"/>
    <path d="m12.5 18.894 4.3572 2.5156"/>
    <path d="m12.5 12.425v-5.0312"/>
    <path d="m12.5 18.894-4.3572 2.5156"/>
    <path d="m12.5 18.894-1e-4 -1.4375"/>
    <path d="m12.5 5.9562 1.2448 0.7188"/>
    <path d="m18.102 15.659-1.245 0.71952"/>
    <path d="m12.5 10.988v-3.5937"/>
    <path d="m18.102 15.659 4.3571 2.5156"/>
    <path d="m12.5 5.9562-1.245 0.7188"/>
    <path d="m18.102 15.659v-1.437"/>
    <path d="m12.5 5.9562v-5.0312"/>
    <path d="m6.8979 15.659v-1.437"/>
    <path d="m6.8979 15.659 1.2449 0.719"/>
    <path d="m11.256 13.144-3.1122 1.7968"/>
    <path d="m6.8979 15.659-4.3571 2.5156"/>
  </g>
</svg>
